# xmcd
#
# Track frame offsets: 
#        150
#        38614
#        75581
#        116774
#        150711
#        188342
#        223281
#        259913
#
# Disc length: 4142 seconds
#
# Revision: 0
# Processed by: cddbd v1.5.2PL0 Copyright (c) Steve Scherf et al.
# Submitted via: ExactAudioCopyFreeDBPlugin 1.0
#
DISCID=64102c08
DTITLE=Thanh Tuan - DHVN - Tieng Hat Thanh Tuan
DYEAR=2001
DGENRE=Tan Co Giao Duyen
TTITLE0=Thanh Tuan and Minh Vuong - Soi Nho Soi Thuong
TTITLE1=Thanh Tuan and Le Thuy - Qua Cau Gio Bay
TTITLE2=Thanh Tuan and My Chau - Truong Chi My Nuong
TTITLE3=Thanh Tuan and Thanh Kim Hue - Mua Xuan Hanh Ngo
TTITLE4=Thanh Tuan and Le Thuy - Qua Ngo Nha Em
TTITLE5=Thanh Tuan and Kim Thuy - Mung Tuoi Me
TTITLE6=Thanh Tuan and Phuong Lien - Tieng Dan Chai
TTITLE7=Thanh Tuan and Thanh Kim Hue - Duong Guom Nguyen Ba
EXTD=
EXTT0=
EXTT1=
EXTT2=
EXTT3=
EXTT4=
EXTT5=
EXTT6=
EXTT7=
PLAYORDER=
